# xmcd
#
# Track frame offsets:
#	150
#	13053
#	34804
#	54174
#	76423
#	100036
#	120064
#	138242
#	160050
#	181778
#	201193
#	225883
#	228249
#
# Disc length: 3348 seconds
#
# Revision: 0
# Processed by: cddbd v1.5.2PL0 Copyright (c) Steve Scherf et al.
# Submitted via: audiograbber 1.83.01
#
DISCID=880d120d
DTITLE=Jamie Foxx - Peep This
DYEAR=1900
DGENRE=
TTITLE0=Peep This
TTITLE1=Experiment
TTITLE2=Miss You
TTITLE3=Dog House
TTITLE4=Infatuation
TTITLE5=Baby Don't Cry
TTITLE6=Precious
TTITLE7=Your Love
TTITLE8=Summertime
TTITLE9=If You Love Me
TTITLE10=Don't Let The Sun Go Down
TTITLE11=Peep This Out
TTITLE12=Light A Candle
EXTD=
EXTT0=
EXTT1=
EXTT2=
EXTT3=featuring the Poetess
EXTT4=
EXTT5=
EXTT6=
EXTT7=
EXTT8=
EXTT9=
EXTT10=
EXTT11=
EXTT12=
PLAYORDER=
